{"title":"You.Again.2010.720p.BRRip.x264.Feel-Free","uid":6070936,"size":2127747887,"categoryP":"video","categoryS":"hd___movies","magnet":"?xt=urn:btih:99f425077e9591670e06d4ef2e40e5e94b9e371f&amp;dn=You.Again.2010.720p.BRRip.x264.Feel-Free&amp;tr=udp%3A%2F%2Ftracker.openbittorrent.com%3A80&amp;tr=udp%3A%2F%2Fopen.demonii.com%3A1337&amp;tr=udp%3A%2F%2Ftracker.coppersurfer.tk%3A6969&amp;tr=udp%3A%2F%2Fexodus.desync.com%3A6969","seeders":0,"leechers":1,"uploader":".BONE.","files":10,"time":1293616012,"description":"Genre:Comedy\nLanguage:English\n &lt;a href=&quot;\nhttp://www.imdb.com/title/tt1414382/&quot; rel=&quot;nofollow&quot; target=&quot;_NEW&quot;&gt;\nhttp://www.imdb.com/title/tt1414382/&lt;/a&gt;\n\nSource:Blu-ray.720p.x264.DTS-MySiLU\nSubtitles:Romana\n\n\nFormat : Matroska\nFile size : 1.98 GiB\nDuration : 1h 45mn\nOverall bit rate : 2 682 Kbps\n\nVideo\nFormat settings, CABAC : Yes\nFormat settings, ReFrames : 4 frames\nFormat settings, GOP : M=1, N=32\nCodec ID : V_MPEG4/ISO/AVC\nDuration : 1h 45mn\nBit rate : 2 300 Kbps\nWidth : 1 280 pixels\nHeight : 532 pixels\nDisplay aspect ratio : 2.40:1\nFrame rate mode : Variable\nFrame rate : 23.976 fps\nColor space : YUV\nChroma subsampling : 4:2:0\nBit depth : 8 bits\nScan type : Progressive\nBits/(Pixel*Frame) : 0.141\nStream size : 1.65 GiB (84%)\nWriting library : x264\n\nAudio\nID : 2\nFormat : AC-3\nFormat/Info : Audio Coding 3\nMode extension : CM (complete main)\nCodec ID : A_AC3\nDuration : 1h 45mn\nBit rate mode : Constant\nBit rate : 384 Kbps\nChannel(s) : 6 channels\nChannel positions : Front: L C R, Side: L R, LFE\nSampling rate : 48.0 KHz\nBit depth : 16 bits\nVideo delay : -1mn 5s\nStream size : 290 MiB (14%)\nLanguage : English\n\n\nPlot:\nWhen a young woman realizes her brother is about to marry the girl who bullied her in high school, she sets out to expose the fiancTe's true colors.\n &lt;a href=&quot;\nhttp://img704.imageshack.us/img704/4599/vlcsnap2010122909h23m17.png&quot; rel=&quot;nofollow&quot; target=&quot;_NEW&quot;&gt;\nhttp://img704.imageshack.us/img704/4599/vlcsnap2010122909h23m17.png&lt;/a&gt;\n &lt;a href=&quot;\nhttp://img403.imageshack.us/img403/8996/vlcsnap2010122909h23m04.png&quot; rel=&quot;nofollow&quot; target=&quot;_NEW&quot;&gt;\nhttp://img403.imageshack.us/img403/8996/vlcsnap2010122909h23m04.png&lt;/a&gt;\n &lt;a href=&quot;\nhttp://img600.imageshack.us/img600/5859/vlcsnap2010122909h24m43.png&quot; rel=&quot;nofollow&quot; target=&quot;_NEW&quot;&gt;\nhttp://img600.imageshack.us/img600/5859/vlcsnap2010122909h24m43.png&lt;/a&gt;\n &lt;a href=&quot;\nhttp://img692.imageshack.us/img692/149/vlcsnap2010122909h25m09.png&quot; rel=&quot;nofollow&quot; target=&quot;_NEW&quot;&gt;\nhttp://img692.imageshack.us/img692/149/vlcsnap2010122909h25m09.png&lt;/a&gt;\n &lt;a href=&quot;\nhttp://img408.imageshack.us/img408/730/vlcsnap2010122909h24m20.png&quot; rel=&quot;nofollow&quot; target=&quot;_NEW&quot;&gt;\nhttp://img408.imageshack.us/img408/730/vlcsnap2010122909h24m20.png&lt;/a&gt;","torrent":{"xt":"urn:btih:99f425077e9591670e06d4ef2e40e5e94b9e371f","amp;dn":"You.Again.2010.720p.BRRip.x264.Feel-Free","amp;tr":["udp%3A%2F%2Ftracker.openbittorrent.com%3A80","udp%3A%2F%2Fopen.demonii.com%3A1337","udp%3A%2F%2Ftracker.coppersurfer.tk%3A6969","udp%3A%2F%2Fexodus.desync.com%3A6969"],"infoHash":"99f425077e9591670e06d4ef2e40e5e94b9e371f","infoHashBuffer":{"type":"Buffer","data":[153,244,37,7,126,149,145,103,14,6,212,239,46,64,229,233,75,158,55,31]},"announce":[],"urlList":[]}}